<svg id="Capa_1" enable-background="new 0 0 512 512" height="512" viewBox="0 0 512 512" width="512" xmlns="http://www.w3.org/2000/svg"><g><path d="m76 402c-3.285 0-6.36 1.613-8.228 4.316-5.305 7.681-31.772 46.945-31.772 65.684 0 22.056 17.944 40 40 40s40-17.944 40-40c0-18.739-26.467-58.003-31.772-65.684-1.868-2.703-4.943-4.316-8.228-4.316zm0 90c-11.028 0-20-8.972-20-20 0-6.62 9.331-24.742 20-41.787 10.669 17.045 20 35.167 20 41.787 0 11.028-8.972 20-20 20z"/><path d="m256 402c-3.285 0-6.36 1.613-8.228 4.316-5.305 7.681-31.772 46.945-31.772 65.684 0 22.056 17.944 40 40 40s40-17.944 40-40c0-18.739-26.467-58.003-31.772-65.684-1.868-2.703-4.943-4.316-8.228-4.316zm0 90c-11.028 0-20-8.972-20-20 0-6.62 9.331-24.742 20-41.787 10.669 17.045 20 35.167 20 41.787 0 11.028-8.972 20-20 20z"/><path d="m166 342c-3.285 0-6.36 1.613-8.228 4.316-5.305 7.681-31.772 46.945-31.772 65.684 0 22.056 17.944 40 40 40s40-17.944 40-40c0-18.739-26.467-58.003-31.772-65.684-1.868-2.703-4.943-4.316-8.228-4.316zm0 90c-11.028 0-20-8.972-20-20 0-6.62 9.331-24.742 20-41.787 10.669 17.045 20 35.167 20 41.787 0 11.028-8.972 20-20 20z"/><path d="m436 402c-3.285 0-6.36 1.613-8.228 4.316-5.305 7.681-31.772 46.945-31.772 65.684 0 22.056 17.944 40 40 40s40-17.944 40-40c0-18.739-26.467-58.003-31.772-65.684-1.868-2.703-4.943-4.316-8.228-4.316zm0 90c-11.028 0-20-8.972-20-20 0-6.62 9.331-24.742 20-41.787 10.669 17.045 20 35.167 20 41.787 0 11.028-8.972 20-20 20z"/><path d="m346 342c-3.285 0-6.36 1.613-8.228 4.316-5.305 7.681-31.772 46.945-31.772 65.684 0 22.056 17.944 40 40 40s40-17.944 40-40c0-18.739-26.467-58.003-31.772-65.684-1.868-2.703-4.943-4.316-8.228-4.316zm0 90c-11.028 0-20-8.972-20-20 0-6.62 9.331-24.742 20-41.787 10.669 17.045 20 35.167 20 41.787 0 11.028-8.972 20-20 20z"/><circle cx="256" cy="283" r="10"/><path d="m418.903 123.164c3.064-67.332-54.826-123.164-117.903-123.164-47.659 0-88.869 30.623-107.3 70.125-20.827-9.343-46.263-8.715-66.602 2.344-19.111 10.393-30.964 28.517-33.562 50.722-46.675-2.907-93.536 32.28-93.536 84.809 0 46.075 40.299 85 88 85h123c5.522 0 10-4.478 10-10s-4.478-10-10-10h-123c-36.859 0-68-29.767-68-65 0-43.754 43.058-71.407 81.029-63.7 2.982.609 6.08-.18 8.413-2.136 2.334-1.955 3.649-4.867 3.574-7.91-.492-19.956 7.902-35.658 23.637-44.215 17.272-9.393 40.473-8.338 56.426 2.558 2.575 1.759 5.825 2.216 8.785 1.236 2.961-.981 5.295-3.287 6.311-6.236 11.569-33.592 47.169-67.597 92.825-67.597 54.398 0 106.67 51.711 96.797 113.194-.525 3.271.604 6.591 3.015 8.863 2.412 2.273 5.791 3.205 9.026 2.484 38.915-8.639 82.162 20.122 82.162 63.459 0 35.233-31.141 65-68 65h-123c-5.522 0-10 4.478-10 10s4.478 10 10 10h123c47.701 0 88-38.925 88-85 0-51.224-45.772-87.568-93.097-84.836z"/></g></svg>