<svg id="Layer_1" enable-background="new 0 0 508.985 508.985" height="512" viewBox="0 0 508.985 508.985" width="512" xmlns="http://www.w3.org/2000/svg"><path d="m455.214 301.762c15.8-14.666 28.847-32.518 38.043-52.853l15.728-34.777-35.196 14.765c-114.062 50.545-229.411-64.93-178.879-178.792l15.018-35.361-35.005 15.831c-71.808 32.473-111.236 111.944-92.414 189.379-28.239 12.841-50.445 36.086-61.941 64.937-139.207-13.286-167.673 179.963-33.459 209.143l1.232.207h324.998l1.232-.207c93.432-16.165 119.176-140.672 40.643-192.272zm-199.949-223.508c-20.462 109.957 80.372 210.854 190.348 190.272-25.288 29.602-62.7 47.458-102.766 47.458-125.036-.059-182.238-157.223-87.582-237.73zm155.516 385.987h-319.881c-35.036-6.48-61.31-38.506-61.31-75 0-41.355 33.645-75 75-75 22.55 0 30.168 3.543 36.989 4.584 2.277-4.797 6.378-48.288 50.73-70.309 38.075 88.489 153.482 126.065 236.934 72.95 65.661 31.616 52.018 128.898-18.462 142.775z"/></svg>